<svg width="22" height="22" viewBox="0 0 22 22" fill="none" xmlns="http://www.w3.org/2000/svg">
<g clip-path="url(#clip0_13363_1624)">
<path d="M19.1583 7.02167L18.4433 7.4525L17.9942 7.7275L17.1417 8.23167L4.36333 15.895L4.28083 15.9408L3.795 16.2342L3.23583 16.5733C2.90583 15.7575 2.75 14.7308 2.75 13.475V8.525C2.75 4.4 4.4 2.75 8.525 2.75H13.475C17.0592 2.75 18.7733 3.99667 19.1583 7.02167Z" fill="#5B6B79"/>
<path opacity="0.4" d="M19.2499 8.43335V13.475C19.2499 17.6 17.5999 19.25 13.4749 19.25H8.52494C6.28827 19.25 4.77577 18.7642 3.87744 17.655L4.15244 17.49L4.71161 17.1508L5.19744 16.8575L5.27994 16.8117L18.0583 9.14835L18.9108 8.64418L19.2499 8.43335Z" fill="#5B6B79"/>
</g>
<defs>
<clipPath id="clip0_13363_1624">
<rect width="22" height="22" fill="white"/>
</clipPath>
</defs>
</svg>
