<svg width="22" height="22" viewBox="0 0 22 22" fill="none" xmlns="http://www.w3.org/2000/svg">
<g clip-path="url(#clip0_13363_1704)">
<path opacity="0.4" d="M11 15.9042C11.8252 15.9042 12.4942 15.2353 12.4942 14.4101C12.4942 13.5849 11.8252 12.9159 11 12.9159C10.1748 12.9159 9.50586 13.5849 9.50586 14.4101C9.50586 15.2353 10.1748 15.9042 11 15.9042Z" fill="#5B6B79"/>
<path d="M15.2624 8.65332H6.73742C2.97909 8.65332 1.83325 9.79915 1.83325 13.5575V15.2625C1.83325 19.0208 2.97909 20.1667 6.73742 20.1667H15.2624C19.0208 20.1667 20.1666 19.0208 20.1666 15.2625V13.5575C20.1666 9.79915 19.0208 8.65332 15.2624 8.65332ZM10.9999 17.1783C9.46909 17.1783 8.23158 15.9317 8.23158 14.41C8.23158 12.8883 9.46909 11.6417 10.9999 11.6417C12.5308 11.6417 13.7683 12.8883 13.7683 14.41C13.7683 15.9317 12.5308 17.1783 10.9999 17.1783Z" fill="#5B6B79"/>
<path opacity="0.4" d="M6.52674 8.66254V7.59004C6.52674 4.90421 7.28757 3.11671 11.0001 3.11671C14.7126 3.11671 15.4734 4.90421 15.4734 7.59004V8.66254C15.9409 8.67171 16.3626 8.69004 16.7567 8.74504V7.59004C16.7567 5.11504 16.1609 1.83337 11.0001 1.83337C5.83924 1.83337 5.24341 5.11504 5.24341 7.59004V8.73587C5.62841 8.69004 6.05924 8.66254 6.52674 8.66254Z" fill="#5B6B79"/>
</g>
<defs>
<clipPath id="clip0_13363_1704">
<rect width="22" height="22" fill="white"/>
</clipPath>
</defs>
</svg>
