<svg width="22" height="22" viewBox="0 0 22 22" fill="none" xmlns="http://www.w3.org/2000/svg">
<g clip-path="url(#clip0_13363_1750)">
<path opacity="0.4" d="M1.83325 11.8892V6.40754C1.83325 3.87754 3.88659 1.83337 6.41658 1.83337H15.5833C18.1133 1.83337 20.1666 3.87754 20.1666 6.40754V12.8059C20.1666 15.3267 18.1133 17.3709 15.5833 17.3709H14.2083C13.9241 17.3709 13.6491 17.5084 13.4749 17.7375L12.0999 19.5617C11.4949 20.3684 10.5049 20.3684 9.89992 19.5617L8.52492 17.7375C8.37825 17.5359 8.04825 17.3709 7.79158 17.3709H6.41658C3.88659 17.3709 1.83325 15.3267 1.83325 12.8059V11.8892Z" fill="#5B6B79"/>
<path d="M10.9999 11C10.4866 11 10.0833 10.5875 10.0833 10.0833C10.0833 9.57913 10.4958 9.16663 10.9999 9.16663C11.5041 9.16663 11.9166 9.57913 11.9166 10.0833C11.9166 10.5875 11.5133 11 10.9999 11Z" fill="#5B6B79"/>
<path d="M14.6667 11C14.1533 11 13.75 10.5875 13.75 10.0833C13.75 9.57913 14.1625 9.16663 14.6667 9.16663C15.1708 9.16663 15.5833 9.57913 15.5833 10.0833C15.5833 10.5875 15.18 11 14.6667 11Z" fill="#5B6B79"/>
<path d="M7.33341 11C6.82008 11 6.41675 10.5875 6.41675 10.0833C6.41675 9.57913 6.82925 9.16663 7.33341 9.16663C7.83758 9.16663 8.25008 9.57913 8.25008 10.0833C8.25008 10.5875 7.84675 11 7.33341 11Z" fill="#5B6B79"/>
</g>
<defs>
<clipPath id="clip0_13363_1750">
<rect width="22" height="22" fill="white"/>
</clipPath>
</defs>
</svg>
