<svg width="22" height="22" viewBox="0 0 22 22" fill="none" xmlns="http://www.w3.org/2000/svg">
<g clip-path="url(#clip0_13363_1503)">
<path opacity="0.4" d="M9.54321 2.9754C10.3311 2.34359 11.6574 2.34211 12.4563 2.98419L12.4573 2.98517L18.8079 8.06134V8.06232C19.0749 8.27737 19.3211 8.63707 19.4827 9.06036C19.6439 9.48301 19.701 9.91665 19.6458 10.2576L18.427 17.5526C18.2478 18.6056 17.1993 19.493 16.1331 19.493H5.86646C4.791 19.4929 3.75238 18.6152 3.57251 17.5545H3.57349L2.35376 10.2576V10.2547L2.33618 10.1229C2.30943 9.807 2.36914 9.42961 2.51001 9.06036C2.67103 8.63844 2.91901 8.27943 3.1897 8.06427L3.19067 8.06232L9.54321 2.9754Z" fill="#4680FF" stroke="#4680FF"/>
<path d="M11.0002 10.125C11.9896 10.1252 12.7913 10.9276 12.7913 11.917C12.7911 12.9062 11.9895 13.7078 11.0002 13.708C10.0108 13.708 9.20843 12.9064 9.20825 11.917C9.20825 10.9275 10.0107 10.125 11.0002 10.125Z" fill="#4680FF" stroke="#4680FF"/>
</g>
<defs>
<clipPath id="clip0_13363_1503">
<rect width="22" height="22" fill="white"/>
</clipPath>
</defs>
</svg>
