<svg width="22" height="22" viewBox="0 0 22 22" fill="none" xmlns="http://www.w3.org/2000/svg">
<path opacity="0.4" d="M15.5833 18.7917H6.41658C3.66659 18.7917 1.83325 17.4167 1.83325 14.2084V7.79171C1.83325 4.58337 3.66659 3.20837 6.41658 3.20837H15.5833C18.3333 3.20837 20.1666 4.58337 20.1666 7.79171V14.2084C20.1666 17.4167 18.3333 18.7917 15.5833 18.7917Z" fill="#5B6B79"/>
<path d="M11.0001 11.7975C10.2301 11.7975 9.45096 11.5591 8.85513 11.0733L5.98595 8.78164C5.69262 8.54331 5.63763 8.11247 5.87596 7.81914C6.11429 7.5258 6.54513 7.47081 6.83846 7.70914L9.70762 10.0008C10.4043 10.56 11.5868 10.56 12.2834 10.0008L15.1526 7.70914C15.446 7.47081 15.886 7.51664 16.1151 7.81914C16.3535 8.11247 16.3076 8.55247 16.0051 8.78164L13.136 11.0733C12.5493 11.5591 11.7701 11.7975 11.0001 11.7975Z" fill="#5B6B79"/>
</svg>
