<svg width="22" height="22" viewBox="0 0 22 22" fill="none" xmlns="http://www.w3.org/2000/svg">
<g clip-path="url(#clip0_13363_1562)">
<path opacity="0.4" d="M15.5833 7.10415C15.4091 7.10415 15.2349 7.03998 15.0974 6.90248C14.8316 6.63664 14.8316 6.19665 15.0974 5.93081L16.9766 4.05164C15.3632 2.67664 13.2824 1.83331 10.9999 1.83331C5.93992 1.83331 1.83325 5.93998 1.83325 11C1.83325 16.06 5.93992 20.1666 10.9999 20.1666C16.0599 20.1666 20.1666 16.06 20.1666 11C20.1666 8.71748 19.3232 6.63665 17.9482 5.02332L16.0691 6.90248C15.9316 7.03998 15.7574 7.10415 15.5833 7.10415Z" fill="#5B6B79"/>
<path d="M12.6041 10.835L11.6874 10.5142V8.47917H11.7607C12.2282 8.47917 12.6041 8.89167 12.6041 9.39583C12.6041 9.77167 12.9158 10.0833 13.2916 10.0833C13.6674 10.0833 13.9791 9.77167 13.9791 9.39583C13.9791 8.13083 12.9891 7.10417 11.7607 7.10417H11.6874V6.875C11.6874 6.49917 11.3758 6.1875 10.9999 6.1875C10.6241 6.1875 10.3124 6.49917 10.3124 6.875V7.10417H10.0374C8.92826 7.10417 8.02075 8.03917 8.02075 9.19417C8.02075 10.5325 8.79992 10.9633 9.39575 11.1742L10.3124 11.495V13.53H10.2391C9.7716 13.53 9.39575 13.1175 9.39575 12.6133C9.39575 12.2375 9.08409 11.9258 8.70825 11.9258C8.33242 11.9258 8.02075 12.2375 8.02075 12.6133C8.02075 13.8783 9.01076 14.905 10.2391 14.905H10.3124V15.1342C10.3124 15.51 10.6241 15.8217 10.9999 15.8217C11.3758 15.8217 11.6874 15.51 11.6874 15.1342V14.905H11.9624C13.0716 14.905 13.9791 13.97 13.9791 12.815C13.9791 11.4675 13.1999 11.0367 12.6041 10.835ZM9.84491 9.86334C9.53324 9.75334 9.39575 9.68916 9.39575 9.185C9.39575 8.79083 9.6891 8.47 10.0374 8.47H10.3124V10.0192L9.84491 9.86334ZM11.9624 13.5208H11.6874V11.9717L12.1549 12.1367C12.4666 12.2467 12.6041 12.3108 12.6041 12.815C12.6041 13.2 12.3107 13.5208 11.9624 13.5208Z" fill="#5B6B79"/>
<path d="M20.7991 1.56749C20.7257 1.40249 20.5974 1.265 20.4232 1.19166C20.3407 1.155 20.2491 1.13666 20.1574 1.13666H16.4907C16.1149 1.13666 15.8032 1.44832 15.8032 1.82416C15.8032 2.19999 16.1149 2.51166 16.4907 2.51166H18.4982L16.9674 4.0425C17.3157 4.345 17.6366 4.66583 17.9391 5.01416L19.4699 3.48333V5.49999C19.4699 5.87583 19.7816 6.18749 20.1574 6.18749C20.5332 6.18749 20.8449 5.87583 20.8449 5.49999V1.83333C20.8541 1.74166 20.8357 1.65916 20.7991 1.56749Z" fill="#5B6B79"/>
</g>
<defs>
<clipPath id="clip0_13363_1562">
<rect width="22" height="22" fill="white"/>
</clipPath>
</defs>
</svg>
