<svg width="22" height="22" viewBox="0 0 22 22" fill="none" xmlns="http://www.w3.org/2000/svg">
<g clip-path="url(#clip0_13363_1674)">
<path opacity="0.4" d="M14.1899 2.75H6.89325C3.73075 2.75 1.83325 4.63833 1.83325 7.81V15.0975C1.83325 18.2783 3.73075 20.1667 6.89325 20.1667H14.1808C17.3524 20.1667 19.2408 18.2783 19.2408 15.1067V7.81C19.2499 4.63833 17.3524 2.75 14.1899 2.75Z" fill="#5B6B79"/>
<path d="M19.2684 2.73163C17.6275 1.08163 16.0234 1.04497 14.3367 2.73163L13.3009 3.7583C13.2092 3.84997 13.1817 3.9783 13.2184 4.09747C13.86 6.3433 15.6567 8.13997 17.9025 8.78163C17.93 8.7908 17.9759 8.7908 18.0034 8.7908C18.095 8.7908 18.1867 8.75413 18.2509 8.68997L19.2684 7.6633C20.1025 6.82913 20.515 6.03163 20.515 5.2158C20.515 4.3908 20.1025 3.57497 19.2684 2.73163Z" fill="#5B6B79"/>
<path d="M16.3716 9.55169C16.1241 9.43252 15.8858 9.31335 15.6658 9.17585C15.4824 9.06585 15.2991 8.94669 15.1249 8.81835C14.9783 8.72669 14.8133 8.58919 14.6483 8.45169C14.6299 8.44252 14.5749 8.39669 14.5016 8.32335C14.2174 8.09419 13.9149 7.78252 13.6308 7.44335C13.6124 7.42502 13.5574 7.37002 13.5116 7.28752C13.4199 7.18669 13.2824 7.01252 13.1633 6.82002C13.0624 6.69169 12.9433 6.50835 12.8333 6.31585C12.6958 6.08669 12.5766 5.85752 12.4666 5.61919C12.3474 5.36252 12.2558 5.12419 12.1733 4.89502L7.2416 9.82669C6.92076 10.1475 6.6091 10.7525 6.54493 11.2017L6.15076 13.9334C6.06826 14.5109 6.2241 15.0517 6.5816 15.4092C6.8841 15.7117 7.2966 15.8675 7.75493 15.8675C7.85576 15.8675 7.9566 15.8584 8.05743 15.8492L10.7799 15.4642C11.2291 15.4 11.8341 15.0975 12.1549 14.7675L17.0866 9.83585C16.8574 9.76252 16.6283 9.66169 16.3716 9.55169Z" fill="#5B6B79"/>
</g>
<defs>
<clipPath id="clip0_13363_1674">
<rect width="22" height="22" fill="white"/>
</clipPath>
</defs>
</svg>
