<svg width="22" height="22" viewBox="0 0 22 22" fill="none" xmlns="http://www.w3.org/2000/svg">
<g clip-path="url(#clip0_13363_1638)">
<path d="M8.70842 17.875V16.5H4.12508C3.62091 16.5 3.16258 16.2983 2.83258 15.9591C2.49341 15.6291 2.29175 15.1708 2.29175 14.6666C2.29175 13.7225 3.02508 12.9341 3.95091 12.8425C4.00591 12.8333 4.06091 12.8333 4.12508 12.8333H17.8751C17.9392 12.8333 17.9942 12.8333 18.0492 12.8425C18.4892 12.8791 18.8742 13.0716 19.1676 13.3741C19.5434 13.7408 19.7451 14.2633 19.6992 14.8316C19.6167 15.7941 18.7459 16.5 17.7742 16.5H13.2917V17.875C13.2917 19.14 12.2651 20.1666 11.0001 20.1666C9.73508 20.1666 8.70842 19.14 8.70842 17.875Z" fill="#5B6B79"/>
<path opacity="0.4" d="M18.4891 4.85831L18.0491 12.8425C17.9941 12.8333 17.9391 12.8333 17.8749 12.8333H4.12491C4.06074 12.8333 4.00574 12.8333 3.95074 12.8425L3.51074 4.85831C3.34574 3.23581 4.6199 1.83331 6.2424 1.83331H15.7574C17.3799 1.83331 18.6541 3.23581 18.4891 4.85831Z" fill="#5B6B79"/>
<path d="M8.01172 1.83331V6.41665C8.01172 6.79248 7.70005 7.10415 7.32422 7.10415C6.94839 7.10415 6.63672 6.79248 6.63672 6.41665V1.83331H8.01172Z" fill="#5B6B79"/>
<path d="M11.6875 1.83331V3.66665C11.6875 4.04248 11.3758 4.35415 11 4.35415C10.6242 4.35415 10.3125 4.04248 10.3125 3.66665V1.83331H11.6875Z" fill="#5B6B79"/>
</g>
<defs>
<clipPath id="clip0_13363_1638">
<rect width="22" height="22" fill="white"/>
</clipPath>
</defs>
</svg>
