<svg width="22" height="22" viewBox="0 0 22 22" fill="none" xmlns="http://www.w3.org/2000/svg">
<path opacity="0.4" d="M14.2083 12.0541H12.2191C10.5874 12.0541 9.25825 10.7341 9.25825 9.09329V7.10413C9.25825 6.72829 8.95575 6.41663 8.57075 6.41663H5.66492C3.54742 6.41663 1.83325 7.79163 1.83325 10.2483V16.335C1.83325 18.7916 3.54742 20.1666 5.66492 20.1666H11.0641C13.1816 20.1666 14.8958 18.7916 14.8958 16.335V12.7416C14.8958 12.3566 14.5841 12.0541 14.2083 12.0541Z" fill="#5B6B79"/>
<path d="M16.3349 1.83337H14.5291H13.5299H10.9358C8.86411 1.83337 7.18661 3.15337 7.11328 5.50921C7.16828 5.50921 7.21411 5.50004 7.26911 5.50004H9.86328H10.8624H12.6683C14.7858 5.50004 16.4999 6.87504 16.4999 9.33171V11.1375V13.6217V15.4275C16.4999 15.4825 16.4908 15.5284 16.4908 15.5742C18.5349 15.51 20.1666 14.1534 20.1666 11.7609V9.95504V7.47087V5.66504C20.1666 3.20837 18.4524 1.83337 16.3349 1.83337Z" fill="#5B6B79"/>
<path d="M10.9817 6.55418C10.6975 6.27002 10.2117 6.46252 10.2117 6.85668V9.25835C10.2117 10.2667 11.0642 11.0917 12.1092 11.0917C12.76 11.1008 13.6675 11.1008 14.4467 11.1008C14.8408 11.1008 15.0425 10.6425 14.7675 10.3675C13.7683 9.36835 11.99 7.58085 10.9817 6.55418Z" fill="#5B6B79"/>
</svg>
