<svg width="22" height="22" viewBox="0 0 22 22" fill="none" xmlns="http://www.w3.org/2000/svg">
<g clip-path="url(#clip0_13363_1532)">
<path opacity="0.4" d="M14.8408 1.83331H7.15909C3.82242 1.83331 1.83325 3.82248 1.83325 7.15915V14.8316C1.83325 18.1775 3.82242 20.1666 7.15909 20.1666H14.8316C18.1683 20.1666 20.1574 18.1775 20.1574 14.8408V7.15915C20.1666 3.82248 18.1774 1.83331 14.8408 1.83331Z" fill="#5B6B79"/>
<path d="M14.4375 8.9375H7.5625C7.18667 8.9375 6.875 8.62583 6.875 8.25C6.875 7.87417 7.18667 7.5625 7.5625 7.5625H14.4375C14.8133 7.5625 15.125 7.87417 15.125 8.25C15.125 8.62583 14.8133 8.9375 14.4375 8.9375Z" fill="#5B6B79"/>
<path d="M14.4375 14.4375H7.5625C7.18667 14.4375 6.875 14.1258 6.875 13.75C6.875 13.3742 7.18667 13.0625 7.5625 13.0625H14.4375C14.8133 13.0625 15.125 13.3742 15.125 13.75C15.125 14.1258 14.8133 14.4375 14.4375 14.4375Z" fill="#5B6B79"/>
</g>
<defs>
<clipPath id="clip0_13363_1532">
<rect width="22" height="22" fill="white"/>
</clipPath>
</defs>
</svg>
