<svg width="22" height="22" viewBox="0 0 22 22" fill="none" xmlns="http://www.w3.org/2000/svg">
<g clip-path="url(#clip0_13363_1575)">
<path opacity="0.4" d="M8.24992 1.83331C5.84825 1.83331 3.89575 3.78581 3.89575 6.18748C3.89575 8.54331 5.73825 10.45 8.13992 10.5325C8.21325 10.5233 8.28659 10.5233 8.34159 10.5325C8.35992 10.5325 8.36909 10.5325 8.38742 10.5325C8.39659 10.5325 8.39659 10.5325 8.40575 10.5325C10.7524 10.45 12.5949 8.54331 12.6041 6.18748C12.6041 3.78581 10.6516 1.83331 8.24992 1.83331Z" fill="#5B6B79"/>
<path d="M12.9066 12.9708C10.3491 11.2658 6.1783 11.2658 3.60246 12.9708C2.4383 13.75 1.79663 14.8042 1.79663 15.9317C1.79663 17.0592 2.4383 18.1042 3.5933 18.8742C4.87663 19.7358 6.5633 20.1667 8.24996 20.1667C9.93663 20.1667 11.6233 19.7358 12.9066 18.8742C14.0616 18.095 14.7033 17.05 14.7033 15.9133C14.6941 14.7858 14.0616 13.7408 12.9066 12.9708Z" fill="#5B6B79"/>
<path opacity="0.4" d="M18.3241 6.72834C18.4707 8.50668 17.2057 10.065 15.4549 10.2758C15.4457 10.2758 15.4457 10.2758 15.4366 10.2758H15.4091C15.3541 10.2758 15.2991 10.2758 15.2532 10.2942C14.3641 10.34 13.5482 10.0558 12.9341 9.53334C13.8782 8.69001 14.4191 7.42501 14.3091 6.05001C14.2449 5.30751 13.9882 4.62918 13.6032 4.05168C13.9516 3.87751 14.3549 3.76751 14.7674 3.73084C16.5641 3.57501 18.1682 4.91334 18.3241 6.72834Z" fill="#5B6B79"/>
<path d="M20.1576 15.2075C20.0842 16.0966 19.5159 16.8666 18.5626 17.3891C17.6459 17.8933 16.4909 18.1316 15.3451 18.1041C16.0051 17.5083 16.3901 16.7658 16.4634 15.9775C16.5551 14.8408 16.0142 13.75 14.9326 12.8791C14.3184 12.3933 13.6034 12.0083 12.8242 11.7241C14.8501 11.1375 17.3984 11.5316 18.9659 12.7966C19.8092 13.475 20.2401 14.3275 20.1576 15.2075Z" fill="#5B6B79"/>
</g>
<defs>
<clipPath id="clip0_13363_1575">
<rect width="22" height="22" fill="white"/>
</clipPath>
</defs>
</svg>
