<svg width="22" height="22" viewBox="0 0 22 22" fill="none" xmlns="http://www.w3.org/2000/svg">
<g clip-path="url(#clip0_13363_1546)">
<path opacity="0.4" d="M10.9999 4.85834V19.5525C10.8441 19.5525 10.6791 19.525 10.5508 19.4517L10.5141 19.4333C8.75409 18.4708 5.68325 17.4625 3.69409 17.1967L3.42825 17.16C2.54825 17.05 1.83325 16.225 1.83325 15.345V4.27168C1.83325 3.18084 2.72242 2.35584 3.81325 2.44751C5.73825 2.60334 8.65325 3.57501 10.2849 4.59251L10.5141 4.73001C10.6516 4.81251 10.8258 4.85834 10.9999 4.85834Z" fill="#5B6B79"/>
<path d="M20.1667 4.28084V15.345C20.1667 16.225 19.4517 17.05 18.5717 17.16L18.2692 17.1967C16.2708 17.4625 13.1908 18.48 11.4308 19.4517C11.3117 19.525 11.165 19.5525 11 19.5525V4.85834C11.1742 4.85834 11.3483 4.81251 11.4858 4.73001L11.6417 4.62917C13.2733 3.60251 16.1975 2.62167 18.1225 2.45667H18.1775C19.2683 2.36501 20.1667 3.18084 20.1667 4.28084Z" fill="#5B6B79"/>
<path d="M7.10425 8.46997H5.04175C4.66591 8.46997 4.35425 8.1583 4.35425 7.78247C4.35425 7.40664 4.66591 7.09497 5.04175 7.09497H7.10425C7.48008 7.09497 7.79175 7.40664 7.79175 7.78247C7.79175 8.1583 7.48008 8.46997 7.10425 8.46997Z" fill="#5B6B79"/>
<path d="M7.79175 11.22H5.04175C4.66591 11.22 4.35425 10.9083 4.35425 10.5325C4.35425 10.1566 4.66591 9.84497 5.04175 9.84497H7.79175C8.16758 9.84497 8.47925 10.1566 8.47925 10.5325C8.47925 10.9083 8.16758 11.22 7.79175 11.22Z" fill="#5B6B79"/>
</g>
<defs>
<clipPath id="clip0_13363_1546">
<rect width="22" height="22" fill="white"/>
</clipPath>
</defs>
</svg>
