<svg width="104" height="58" viewBox="0 0 104 58" fill="none" xmlns="http://www.w3.org/2000/svg">
<path d="M17.7539 26.0562C9.47309 26.0562 1.00024 57.0562 1.00024 57.0562L103 51.5562C95.6089 37.0562 91.2169 1.05617 79.8408 1.05615C69.493 1.05613 64.0727 51.5562 55.2031 51.5562C48.7973 51.5562 48.7973 44.0561 44.3626 44.0561C39.9278 44.0561 38.8022 52.5561 35.0002 52.5561C30.3293 52.5561 24.1376 26.0562 17.7539 26.0562Z" fill="url(#paint0_linear_1721_58792)"/>
<path d="M1.00024 48C1.00024 48 9.79897 26 17.7539 26C25.7088 26 29.0258 52.5 35.0002 52.5C38.4763 52.5 41.4092 44 44.3626 44C47.3159 44 48.7973 51.5001 55.2031 51.5001C64.0727 51.5001 69.493 0.99998 79.8408 1C91.2169 1.00002 95.6089 37 103 51.5001" stroke="#4680FF" stroke-width="2" stroke-linecap="round"/>
<defs>
<linearGradient id="paint0_linear_1721_58792" x1="51.999" y1="-39.0243" x2="51.999" y2="65.863" gradientUnits="userSpaceOnUse">
<stop stop-color="#B5CCFF"/>
<stop offset="1" stop-color="white" stop-opacity="0"/>
</linearGradient>
</defs>
</svg>
