<svg width="104" height="55" viewBox="0 0 104 55" fill="none" xmlns="http://www.w3.org/2000/svg">
<path d="M86.2466 26.0562C94.5274 26.0562 103 54.0562 103 54.0562L1.00024 51.5562C8.39155 37.0562 12.7836 1.05617 24.1597 1.05615C34.5075 1.05613 39.9278 51.5562 48.7973 51.5562C55.2031 51.5562 55.2031 44.0561 59.6379 44.0561C64.0727 44.0561 65.1983 52.5561 69.0002 52.5561C73.6712 52.5561 79.8629 26.0562 86.2466 26.0562Z" fill="url(#paint0_linear_1721_58801)"/>
<path d="M103 53C103 53 94.2015 26 86.2466 26C78.2917 26 74.9747 52.5 69.0002 52.5C65.5242 52.5 62.5913 44 59.6379 44C56.6846 44 55.2031 51.5001 48.7973 51.5001C39.9278 51.5001 34.5075 0.99998 24.1597 1C12.7836 1.00002 8.39155 37 1.00024 51.5001" stroke="#DC2626" stroke-width="2" stroke-linecap="round"/>
<defs>
<linearGradient id="paint0_linear_1721_58801" x1="52.0015" y1="-39.0243" x2="52.0015" y2="65.863" gradientUnits="userSpaceOnUse">
<stop stop-color="#F75F5F"/>
<stop offset="1" stop-color="white" stop-opacity="0"/>
</linearGradient>
</defs>
</svg>
