<svg width="22" height="22" viewBox="0 0 22 22" fill="none" xmlns="http://www.w3.org/2000/svg">
<path d="M10.5416 19.9375C5.36242 19.9375 1.14575 15.7208 1.14575 10.5417C1.14575 5.36249 5.36242 1.14583 10.5416 1.14583C15.7208 1.14583 19.9374 5.36249 19.9374 10.5417C19.9374 15.7208 15.7208 19.9375 10.5416 19.9375ZM10.5416 2.52083C6.11409 2.52083 2.52075 6.12333 2.52075 10.5417C2.52075 14.96 6.11409 18.5625 10.5416 18.5625C14.9691 18.5625 18.5624 14.96 18.5624 10.5417C18.5624 6.12333 14.9691 2.52083 10.5416 2.52083Z" fill="#5B6B79"/>
<path d="M20.1665 20.8542C19.9923 20.8542 19.8182 20.79 19.6807 20.6525L17.8473 18.8192C17.5815 18.5533 17.5815 18.1133 17.8473 17.8475C18.1132 17.5817 18.5532 17.5817 18.819 17.8475L20.6523 19.6808C20.9182 19.9467 20.9182 20.3867 20.6523 20.6525C20.5148 20.79 20.3407 20.8542 20.1665 20.8542Z" fill="#5B6B79"/>
</svg>
