<svg width="16" height="16" viewBox="0 0 16 16" fill="none" xmlns="http://www.w3.org/2000/svg">
<g clip-path="url(#clip0_1726_59393)">
<g clip-path="url(#clip1_1726_59393)">
<path d="M12.7134 2.28723C12.7142 2.28821 12.7163 2.29178 12.7163 2.29993C12.7163 2.30791 12.7143 2.31153 12.7134 2.31262L3.39307 11.632C3.38818 11.6321 3.38234 11.6328 3.37549 11.6329C3.36765 11.6331 3.35954 11.6329 3.3501 11.6329C3.35019 11.6236 3.3539 11.6203 3.354 11.6202L12.687 2.28723C12.6871 2.28713 12.6904 2.28342 12.6997 2.28333C12.7094 2.28333 12.7133 2.28713 12.7134 2.28723Z" fill="#DC2626" stroke="#DC2626"/>
<path d="M3.33325 4.7666C3.3452 4.7666 3.35487 4.76866 3.36255 4.76953C3.3635 4.77739 3.36645 4.78719 3.36646 4.7998V11.6328H3.33325C3.32872 11.6328 3.32279 11.6322 3.31665 11.6299C3.31072 11.6276 3.30689 11.6248 3.30493 11.623C3.30384 11.622 3.30316 11.6214 3.30298 11.6211C3.30281 11.6207 3.30162 11.6191 3.30103 11.6162C3.30043 11.6133 3.30005 11.6077 3.30005 11.5996V4.7998L3.30298 4.7832C3.30517 4.7775 3.30807 4.77351 3.30981 4.77148C3.31117 4.77001 3.31244 4.76967 3.31274 4.76953C3.31324 4.76932 3.3143 4.76809 3.31665 4.76758C3.31948 4.76699 3.32513 4.76661 3.33325 4.7666Z" fill="#DC2626" stroke="#DC2626"/>
<path opacity="0.4" d="M13.6667 15.2H2.33338C2.06672 15.2 1.80005 15 1.80005 14.6666C1.80005 14.3333 2.00005 14.1333 2.33338 14.1333H13.6667C13.9334 14.1333 14.2 14.3333 14.2 14.6666C14.2 15 13.9334 15.2 13.6667 15.2Z" fill="#DC2626"/>
</g>
</g>
<defs>
<clipPath id="clip0_1726_59393">
<rect width="16" height="16" fill="white"/>
</clipPath>
<clipPath id="clip1_1726_59393">
<rect width="16" height="16" fill="white"/>
</clipPath>
</defs>
</svg>
